<svg width="20" height="21" viewBox="0 0 20 21" fill="none" xmlns="http://www.w3.org/2000/svg">
<path d="M12.4999 14.6667H16.6666L15.4958 13.4959C15.1783 13.1784 14.9999 12.7477 14.9999 12.2987V9.66667C14.9999 7.48964 13.6086 5.63757 11.6666 4.95118V4.66667C11.6666 3.74619 10.9204 3 9.99992 3C9.07944 3 8.33325 3.74619 8.33325 4.66667V4.95118C6.39126 5.63757 4.99992 7.48964 4.99992 9.66667V12.2987C4.99992 12.7477 4.82154 13.1784 4.50403 13.4959L3.33325 14.6667H7.49992M12.4999 14.6667V15.5C12.4999 16.8807 11.3806 18 9.99992 18C8.61921 18 7.49992 16.8807 7.49992 15.5V14.6667M12.4999 14.6667H7.49992" stroke="#2B363D" stroke-width="1.5" stroke-linecap="round" stroke-linejoin="round"/>
</svg>
